<?xml version="1.0" standalone="no"?>
<!DOCTYPE svg PUBLIC "-//W3C//DTD SVG 20010904//EN"
 "http://www.w3.org/TR/2001/REC-SVG-20010904/DTD/svg10.dtd">
<svg version="1.0" xmlns="http://www.w3.org/2000/svg"
 width="500.000000pt" height="500.000000pt" viewBox="0 0 500.000000 500.000000"
 preserveAspectRatio="xMidYMid meet">
<metadata>
Created by potrace 1.14, written by Peter Selinger 2001-2017
</metadata>
<g transform="translate(0.000000,500.000000) scale(0.100000,-0.100000)"
fill="#000000" stroke="none">
<path d="M2400 4244 c-344 -33 -681 -181 -953 -418 -232 -204 -377 -399 -474
-638 -181 -443 -158 -934 63 -1368 86 -167 176 -292 309 -425 279 -279 598
-434 989 -480 330 -38 609 6 894 142 143 68 269 157 451 318 52 46 192 220
253 315 151 233 233 477 258 766 5 65 16 245 25 399 29 528 45 810 55 964 15
229 13 285 -8 311 -19 23 -33 25 -567 54 -111 7 -402 23 -540 31 -49 3 -155
10 -235 15 -184 12 -462 19 -520 14z m375 -484 c94 -5 204 -12 245 -14 41 -3
129 -8 195 -11 66 -4 134 -8 150 -10 17 -2 102 -7 190 -11 175 -7 197 -12 219
-46 13 -21 14 -51 1 -273 -8 -138 -21 -376 -30 -530 -25 -464 -40 -566 -104
-727 -65 -165 -143 -282 -276 -413 -245 -243 -539 -357 -885 -342 -370 16
-672 173 -902 471 -178 231 -256 473 -245 766 12 306 107 540 305 752 172 182
356 295 583 358 150 41 261 47 554 30z"/>
</g>
</svg>
